<svg width="110" height="40" viewBox="0 0 110 40" fill="none" xmlns="http://www.w3.org/2000/svg">
<path d="M2.14183 27.1541C0.786781 25.0681 0 22.5809 0 19.9106C0 17.0198 0.922056 14.3437 2.48893 12.1587H6.0579C4.49103 14.3437 3.56897 17.0198 3.56897 19.9106C3.56897 22.5809 4.35576 25.0681 5.7108 27.1541H2.14183Z" fill="#7F7B72"/>
<path d="M18.7018 12.1587C20.0569 14.2448 20.8437 16.7319 20.8437 19.4023C20.8437 22.293 19.9216 24.9691 18.3547 27.1541H14.7858C16.3526 24.9691 17.2747 22.293 17.2747 19.4023C17.2747 16.7319 16.4879 14.2448 15.1329 12.1587L18.7018 12.1587Z" fill="#7F7B72"/>
<path d="M15.4541 22.8337C15.6842 21.852 15.8056 20.8313 15.8056 19.7838C15.8056 18.7363 15.6842 17.7157 15.4541 16.7339H5.45006C5.21997 17.7157 5.09863 18.7363 5.09863 19.7838C5.09863 20.8313 5.21997 21.852 5.45006 22.8337H15.4541Z" fill="#BB0000"/>
<path d="M15.0889 24.1045H5.81543C6.68953 26.6607 8.31833 28.8941 10.4522 30.5673C12.586 28.8941 14.2148 26.6607 15.0889 24.1045Z" fill="#006600"/>
<path d="M10.4522 9C12.586 10.6733 14.2148 12.9066 15.0889 15.4629H5.81543C6.68953 12.9066 8.3183 10.6733 10.4522 9Z" fill="black"/>
<path d="M26.5005 13.23H27.9995V18.6741H28.2136L33.9596 13.23H36.1189L29.8732 18.9765L36.4222 25.8262H34.2273L28.2136 19.4213H27.9995V25.8262H26.5005V13.23Z" fill="white"/>
<path d="M44.8225 24.3139C44.3229 24.9544 43.7756 25.4051 43.1808 25.666C42.586 25.9151 41.896 26.0396 41.1108 26.0396C40.4565 26.0396 39.8676 25.927 39.3442 25.7016C38.8207 25.4644 38.3746 25.1501 38.0058 24.7587C37.6489 24.3673 37.3693 23.9047 37.1671 23.371C36.9767 22.8372 36.8816 22.2679 36.8816 21.663C36.8816 21.0225 36.9886 20.4354 37.2028 19.9017C37.4169 19.3561 37.7143 18.8935 38.095 18.514C38.4757 18.1226 38.9278 17.8201 39.4512 17.6066C39.9747 17.3931 40.5457 17.2864 41.1643 17.2864C41.7473 17.2864 42.2826 17.3872 42.7704 17.5888C43.2581 17.7786 43.6745 18.0633 44.0195 18.4428C44.3764 18.8105 44.65 19.2671 44.8404 19.8127C45.0307 20.3465 45.1259 20.9573 45.1259 21.6452V22.09H38.3805C38.4043 22.4458 38.4876 22.7898 38.6304 23.1219C38.785 23.4421 38.9813 23.7268 39.2192 23.9759C39.4572 24.2131 39.7367 24.4029 40.058 24.5452C40.3792 24.6875 40.7301 24.7587 41.1108 24.7587C41.7175 24.7587 42.2291 24.6519 42.6455 24.4384C43.0618 24.2249 43.4366 23.9106 43.7697 23.4955L44.8225 24.3139ZM43.6269 20.9158C43.6031 20.2041 43.3712 19.6348 42.931 19.2078C42.4908 18.7808 41.8841 18.5673 41.1108 18.5673C40.3375 18.5673 39.713 18.7808 39.2371 19.2078C38.7612 19.6348 38.4757 20.2041 38.3805 20.9158H43.6269Z" fill="white"/>
<path d="M47.1517 19.4747C47.1517 19.0951 47.1398 18.7393 47.116 18.4072C47.0922 18.0751 47.0803 17.7727 47.0803 17.4999H48.4008C48.4008 17.7252 48.4068 17.9506 48.4187 18.1759C48.4305 18.4013 48.4365 18.6326 48.4365 18.8698H48.4722C48.5674 18.6682 48.6982 18.4725 48.8648 18.2827C49.0432 18.0929 49.2514 17.9269 49.4893 17.7845C49.7273 17.6303 49.995 17.5117 50.2924 17.4287C50.5898 17.3338 50.911 17.2864 51.256 17.2864C51.8032 17.2864 52.2731 17.3694 52.6657 17.5355C53.0702 17.7015 53.4033 17.9328 53.665 18.2293C53.9268 18.5258 54.1171 18.8876 54.2361 19.3146C54.3669 19.7297 54.4324 20.1863 54.4324 20.6845V25.8262H53.0405V20.8268C53.0405 20.127 52.8858 19.5755 52.5765 19.1722C52.2672 18.769 51.7854 18.5673 51.1311 18.5673C50.679 18.5673 50.2864 18.6444 49.9533 18.7986C49.6321 18.9528 49.3644 19.1722 49.1503 19.4569C48.9481 19.7416 48.7934 20.0796 48.6863 20.471C48.5912 20.8624 48.5436 21.2953 48.5436 21.7698V25.8262H47.1517V19.4747Z" fill="white"/>
<path d="M60.0093 27.7298C59.8665 28.0856 59.7178 28.4059 59.5632 28.6905C59.4204 28.9871 59.2419 29.2361 59.0278 29.4378C58.8256 29.6513 58.5757 29.8114 58.2783 29.9181C57.9928 30.0367 57.6419 30.096 57.2255 30.096C57.0232 30.096 56.8091 30.0842 56.5831 30.0605C56.3689 30.0367 56.1667 29.9774 55.9763 29.8825L56.1548 28.6727C56.2975 28.7321 56.4463 28.7676 56.6009 28.7795C56.7556 28.8032 56.934 28.8151 57.1363 28.8151C57.5883 28.8151 57.9214 28.6905 58.1356 28.4415C58.3497 28.1924 58.5341 27.8603 58.6888 27.4452L59.2598 25.8795L55.7979 17.4999H57.4218L60.0093 24.0292H60.045L62.5254 17.4999H64.0422L60.0093 27.7298Z" fill="white"/>
<path d="M65.3142 18.5673C65.7425 18.1285 66.2481 17.8083 66.831 17.6066C67.4258 17.3931 68.0266 17.2864 68.6333 17.2864C69.8706 17.2864 70.7628 17.577 71.3101 18.1581C71.8573 18.7393 72.1309 19.623 72.1309 20.809V24.3851C72.1309 24.6223 72.1428 24.8714 72.1666 25.1323C72.1904 25.3814 72.2202 25.6127 72.2558 25.8262H70.9175C70.8699 25.6364 70.8401 25.4288 70.8282 25.2035C70.8282 24.9662 70.8282 24.7587 70.8282 24.5808H70.7926C70.5189 25.0078 70.1501 25.3577 69.6862 25.6305C69.2341 25.9033 68.6869 26.0396 68.0444 26.0396C67.6162 26.0396 67.2117 25.9863 66.831 25.8795C66.4622 25.7728 66.135 25.6186 65.8495 25.417C65.5759 25.2035 65.3558 24.9425 65.1893 24.6341C65.0227 24.3258 64.9394 23.9699 64.9394 23.5667C64.9394 22.8787 65.1179 22.3391 65.4748 21.9477C65.8317 21.5563 66.2719 21.2657 66.7953 21.0759C67.3307 20.8861 67.9017 20.7675 68.5084 20.7201C69.127 20.6726 69.6921 20.6489 70.2037 20.6489H70.739V20.3998C70.739 19.7949 70.5546 19.3383 70.1858 19.0299C69.8289 18.7215 69.3233 18.5673 68.669 18.5673C68.2169 18.5673 67.7708 18.6444 67.3307 18.7986C66.9024 18.941 66.5217 19.1663 66.1886 19.4747L65.3142 18.5673ZM69.3471 21.8231C68.4549 21.8231 67.747 21.9477 67.2236 22.1967C66.7001 22.4458 66.4384 22.855 66.4384 23.4243C66.4384 23.9462 66.6109 24.3198 66.9559 24.5452C67.3128 24.7587 67.753 24.8654 68.2764 24.8654C68.6809 24.8654 69.0319 24.8002 69.3293 24.6697C69.6386 24.5274 69.8944 24.3436 70.0966 24.1182C70.2989 23.8928 70.4535 23.6319 70.5606 23.3354C70.6676 23.027 70.7271 22.7008 70.739 22.3569V21.8231H69.3471Z" fill="white"/>
<path d="M74.7972 13.23H82.7381V14.6177H76.2961V18.5673H82.3099V19.9551H76.2961V24.4384H83.0593V25.8262H74.7972V13.23Z" fill="white"/>
<path d="M85.2477 13.23H87.4783L91.761 23.1041H91.7967L96.1152 13.23H98.2923V25.8262H96.7933V15.2582H96.7576L92.225 25.8262H91.3149L86.7823 15.2582H86.7466V25.8262H85.2477V13.23Z" fill="white"/>
<path d="M101.31 13.23H104.539C105.146 13.23 105.747 13.2656 106.342 13.3367C106.949 13.4079 107.49 13.5621 107.966 13.7993C108.442 14.0365 108.828 14.3864 109.126 14.849C109.423 15.2997 109.572 15.9165 109.572 16.6993C109.572 17.6244 109.292 18.3716 108.733 18.941C108.174 19.5103 107.401 19.872 106.413 20.0262L110 25.8262H108.162L104.736 20.1686H102.809V25.8262H101.31V13.23ZM102.809 18.7808H104.147C104.563 18.7808 104.992 18.769 105.432 18.7453C105.884 18.7215 106.294 18.6444 106.663 18.514C107.044 18.3835 107.353 18.1819 107.591 17.9091C107.841 17.6244 107.966 17.2211 107.966 16.6993C107.966 16.2486 107.876 15.8868 107.698 15.614C107.52 15.3412 107.282 15.1336 106.984 14.9913C106.699 14.8371 106.372 14.7363 106.003 14.6889C105.646 14.6414 105.283 14.6177 104.914 14.6177H102.809V18.7808Z" fill="white"/>
</svg>
