<svg width="1514" height="311" viewBox="0 0 1514 311" fill="none" xmlns="http://www.w3.org/2000/svg">
<path d="M1265.67 241.21C1265.67 250.14 1265.67 258.29 1265.67 266.44C1265.67 269.73 1265.55 273.02 1265.71 276.3C1265.82 278.59 1264.86 279.21 1262.74 279.19C1254.3 279.09 1245.86 279.07 1237.41 279.08C1211.19 279.09 1184.98 279.13 1158.76 279.16C1155.95 279.16 1154.54 277.716 1154.54 274.83C1154.54 268.9 1154.54 262.97 1154.54 256.29C1153.25 257.83 1152.38 258.85 1151.52 259.88C1139.1 274.61 1123.33 282.21 1103.98 282C1094.13 281.89 1084.22 282.07 1074.45 281.07C1057.16 279.31 1042.92 271.83 1033.56 256.57C1029.61 250.12 1028.2 242.95 1027.72 235.52C1027.1 225.92 1026.89 216.31 1029.33 206.94C1033.49 191.04 1044.86 181.82 1059.33 175.76C1066.86 172.61 1074.85 171.16 1082.97 171.16C1095.92 171.16 1108.89 171.23 1121.81 172.03C1131.63 172.64 1140.85 176.05 1149.52 180.76C1150.43 181.26 1151.36 181.74 1153.04 182.63C1153.04 178.42 1153.14 174.75 1153.02 171.09C1152.79 164.27 1153 157.38 1152.01 150.67C1150.19 138.36 1140.84 129.65 1127.89 129.07C1114.17 128.46 1100.34 128.49 1086.65 129.53C1076.94 130.27 1069.34 135.62 1066.08 145.56C1065.97 145.9 1065.88 146.24 1065.8 146.59C1065.1 149.95 1063 151.63 1059.49 151.63C1051.58 151.63 1043.67 151.54 1035.76 151.68C1033.08 151.73 1032.44 150.75 1032.58 148.23C1033.66 128.32 1044.46 115.23 1061.67 106.66C1071.75 101.64 1082.63 100.17 1093.73 100.15C1105.72 100.13 1117.71 100.33 1129.69 100.49C1136.86 100.59 1143.76 102.12 1150.45 104.66C1151.18 104.94 1151.95 105.11 1153.02 105.42C1152.55 102.54 1154.16 102.21 1156.31 102.22C1182.34 102.43 1208.37 102.6 1234.4 102.77C1243.11 102.83 1251.81 102.88 1260.52 102.93C1264.11 102.95 1264.53 103.59 1264.43 107.19C1264.25 113.4 1264.29 119.61 1264.26 125.82C1264.26 126.22 1264.47 126.62 1264.48 126.64C1268.49 122.76 1272.23 118.45 1276.64 115C1287.54 106.49 1300.04 102.21 1313.94 102.23C1318.92 102.23 1323.9 102.31 1328.87 102.2C1331.08 102.15 1331.85 102.97 1331.82 105.16C1331.73 113.06 1331.71 120.97 1331.83 128.87C1331.86 131.17 1330.93 131.78 1328.84 131.77C1322.45 131.75 1316.05 131.6 1309.68 131.97C1290.73 133.07 1276.91 141.82 1269.21 159.56C1268.63 160.9 1267.12 162.22 1265.74 162.77C1258.77 165.56 1254.45 170.49 1253.56 177.92C1252.62 185.71 1255.79 191.84 1262.58 195.79C1264.89 197.13 1265.88 198.6 1265.71 201.26C1265.42 206.04 1265.79 210.87 1265.22 215.61C1263.43 230.44 1250.1 242.36 1233.78 241.92C1218.88 241.52 1205.77 230.14 1203.83 215.25C1203.44 212.243 1204.74 210.363 1207.75 209.61C1227.23 204.7 1240.3 188.31 1240.57 168.25C1240.71 157.86 1240.66 147.48 1240.67 137.09C1240.68 123.48 1227.88 115.96 1215.52 119.02C1212.96 119.65 1211.49 122.18 1211.7 125C1211.91 127.89 1213.99 130.07 1217 130.4C1219.29 130.65 1221.62 130.58 1223.88 130.94C1226.55 131.37 1228.36 133.19 1228.35 135.83C1228.33 148.42 1228.84 161.07 1227.75 173.58C1226.58 187.01 1214.15 197.7 1200.62 198.61C1181.6 199.9 1167.13 187.03 1166.57 168.01C1166.27 157.9 1166.43 147.77 1166.49 137.64C1166.52 132.97 1168.42 131.08 1173.08 130.68C1174.76 130.54 1176.46 130.58 1178.13 130.4C1181.14 130.08 1183.39 127.65 1183.51 124.72C1183.63 121.94 1181.63 119.26 1178.73 118.83C1172.97 117.96 1167.38 118.5 1162.35 121.79C1157 125.3 1154.52 130.57 1154.45 136.7C1154.31 148.31 1154.07 159.96 1154.82 171.54C1156.02 189.98 1168.59 204.53 1186.55 209.19C1189.84 210.04 1191.45 211.54 1191.86 215.05C1193.5 229.03 1199.65 240.35 1212.14 247.64C1229.33 257.68 1247.55 256.15 1262.87 243.41C1263.6 242.81 1264.35 242.23 1265.65 241.21H1265.67ZM1100.53 198.56C1094.23 198.56 1087.89 198.06 1081.65 198.67C1070.09 199.81 1060.26 208.59 1060.34 220.87C1060.36 223.97 1060.37 227.07 1060.38 230.18C1060.43 243.89 1068.4 252.97 1082.12 253.95C1091.04 254.58 1100.04 254.05 1109 254.29C1122.4 254.65 1133.36 249.44 1142.42 239.95C1149.07 232.99 1153.2 224.82 1153.17 214.93C1153.17 212.17 1152.37 209.84 1149.69 208.57C1144.82 206.28 1140.06 203.66 1135.01 201.84C1123.87 197.83 1112.2 197.74 1100.54 198.56H1100.53Z" fill="white"/>
<path d="M825.83 158.05C825.83 172.34 825.18 186.66 826 200.91C826.98 217.81 833.931 232.26 847.531 242.93C854.431 248.34 862.43 251.26 871.19 251.39C886.19 251.62 901.23 252.09 916.2 251.43C937.1 250.51 951.02 239.31 958.57 220.03C961.44 212.69 962.73 205.01 962.87 197.14C962.93 193.81 963 193.72 966.35 193.71C975.41 193.71 984.481 193.75 993.541 193.68C995.331 193.67 996.091 194.12 996.051 196.05C995.671 214.29 992.011 231.64 981.761 247.07C968.081 267.67 948.881 279.05 924.161 281.24C905.431 282.9 886.69 282.3 867.98 281.53C832.97 280.1 805.231 257 795.451 222.01C792.881 212.82 791.59 203.45 791.6 193.9C791.63 175.25 791.541 156.6 791.641 137.95C791.691 127.49 791.3 116.96 792.36 106.58C795.67 74.2298 810.811 49.6398 841.181 35.8298C849.831 31.8998 859.12 30.3098 868.57 29.7498C886.58 28.6698 904.59 28.8398 922.6 29.7298C958.81 31.5198 988.401 58.0398 993.801 93.7798C994.551 98.7698 994.851 103.83 995.411 108.85C995.661 111.13 994.77 112.07 992.44 112.05C983.38 111.98 974.311 112 965.251 112.04C963.141 112.04 962.28 111.23 962.22 109.04C961.9 97.3298 958.87 86.4898 951.6 77.0498C943.62 66.6798 933.14 60.5398 920.09 60.0898C904.21 59.5398 888.281 59.3598 872.411 59.9698C854.651 60.6498 842.071 70.1598 833.541 85.4198C828.011 95.3298 825.471 106.01 825.411 117.29C825.331 130.88 825.391 144.46 825.391 158.05C825.541 158.05 825.69 158.05 825.83 158.05Z" fill="white"/>
<path d="M1447.29 200.64C1430.94 200.64 1414.59 200.65 1398.24 200.64C1393.8 200.64 1389.36 200.5 1384.92 200.5C1381.69 200.5 1381.29 200.9 1381.39 203.99C1381.62 211.16 1381.15 218.46 1382.33 225.48C1385.04 241.54 1396.64 251.94 1413.17 252.72C1426.27 253.34 1439.46 253.11 1452.55 252.32C1465.7 251.53 1476.79 241.57 1479.3 229.67C1479.61 228.2 1479.72 226.68 1479.8 225.18C1479.9 223.44 1480.66 222.64 1482.47 222.65C1491.62 222.69 1500.77 222.71 1509.93 222.65C1512.29 222.63 1512.49 223.99 1512.4 225.77C1511.38 245.38 1503.04 260.74 1486.13 271.2C1474.08 278.66 1460.89 281.81 1446.85 281.82C1435.23 281.82 1423.59 282.05 1411.98 281.67C1397.02 281.18 1383.02 277.27 1371.21 267.61C1356.66 255.7 1348.79 240.25 1348.49 221.42C1348.18 202.07 1348.09 182.71 1348.57 163.37C1349.32 133.4 1368.05 109.6 1396.32 102.61C1403.13 100.93 1410.35 100.39 1417.4 100.24C1429.73 99.9797 1442.08 100.22 1454.42 100.61C1482.15 101.48 1507.06 123.2 1511.48 150.64C1512.73 158.39 1512.78 166.35 1513.04 174.22C1513.29 181.85 1513.08 189.49 1513.11 197.12C1513.12 200.26 1512.82 200.65 1509.66 200.65C1488.87 200.65 1468.08 200.65 1447.29 200.65V200.64ZM1430.79 174.17V174.09C1446.43 174.09 1462.07 174.07 1477.7 174.12C1479.37 174.12 1480.22 173.79 1480.08 171.94C1479.7 167 1479.77 161.99 1479.01 157.11C1476.33 140.02 1463.7 128.98 1446.64 128.74C1435.98 128.59 1425.31 128.57 1414.66 128.84C1404.18 129.11 1395.73 133.61 1389.45 142.07C1383.23 150.45 1381.44 160.07 1381.4 170.2C1381.38 174 1381.51 174.16 1385.23 174.16C1400.42 174.16 1415.61 174.16 1430.81 174.16L1430.79 174.17Z" fill="white"/>
<path d="M304.85 256.3C302.96 258.46 301.57 260.12 300.11 261.72C288.9 274.01 275.24 281.22 258.38 281.8C244.98 282.26 231.55 282.9 218.33 280.08C201.49 276.49 188.24 267.73 181.35 251.48C176.9 240.99 177.03 229.66 177.72 218.45C178.24 209.94 180.28 201.81 185.05 194.57C192.05 183.95 202.42 178.08 214.11 174.17C221.94 171.55 230.05 170.76 238.26 170.96C249.52 171.23 260.81 171.2 272.03 172.06C281.92 172.82 291.28 176.04 299.98 180.93C300.89 181.44 301.83 181.9 303.21 182.62C303.21 175.1 303.37 167.96 303.15 160.83C303.02 156.51 302.83 152.08 301.75 147.93C298.87 136.85 288.68 129.06 276.95 128.86C265.05 128.66 253.14 128.69 241.24 128.92C232.51 129.09 224.74 132.01 219.49 139.33C217.61 141.95 216.61 145.35 215.85 148.55C215.32 150.79 214.7 151.73 212.3 151.7C203.5 151.59 194.71 151.6 185.91 151.7C183.45 151.72 182.59 150.8 182.73 148.38C183.77 130.45 192.68 117.56 208 108.71C219.09 102.31 231.21 100.2 243.81 100.13C254.56 100.07 265.32 99.8197 276.05 100.19C289.15 100.63 301.87 103.08 312.83 110.89C325.7 120.06 333.25 132.59 335.26 148.31C335.69 151.64 335.81 155.03 335.81 158.39C335.85 197.28 335.83 236.17 335.83 275.06C335.83 277.74 334.516 279.083 331.89 279.09C323.89 279.09 315.9 279.03 307.9 279.13C305.62 279.16 304.74 278.47 304.79 276.09C304.92 269.74 304.83 263.39 304.83 256.33L304.85 256.3ZM250.46 198.06C246.29 198.06 242.1 197.86 237.94 198.12C234.34 198.35 230.62 198.63 227.21 199.7C218.03 202.57 211.78 208.38 210.89 218.49C210.49 223.07 210.54 227.69 210.57 232.29C210.62 238.72 212.72 244.28 217.95 248.38C222.03 251.58 226.63 253.76 231.8 253.98C240.93 254.37 250.07 254.57 259.21 254.48C270.81 254.36 281.11 250.62 289.71 242.6C297.8 235.06 303.34 226.33 303.22 214.79C303.19 212.07 302.36 209.82 299.85 208.64C294.42 206.1 289.07 203.23 283.4 201.36C272.73 197.85 261.59 197.72 250.47 198.06H250.46Z" fill="white"/>
<path d="M719.15 256.97C714.8 261.15 710.73 265.75 705.98 269.48C695.56 277.64 683.75 282.18 670.25 281.83C661.65 281.61 653.03 282.05 644.45 281.64C632.76 281.09 621.65 278.29 611.92 271.36C600.01 262.87 593.27 251.49 592.31 236.75C591.74 228.05 591.41 219.38 593 210.76C595.59 196.74 603.53 186.63 615.8 179.65C625.66 174.04 636.31 171.29 647.57 171C656.63 170.76 665.7 170.68 674.75 170.94C689.03 171.35 702.74 174.23 715.28 181.47C715.8 181.77 716.38 181.95 717.16 182.29C717.3 181.55 717.51 180.99 717.5 180.43C717.39 171.65 717.48 162.86 717.06 154.1C716.36 139.63 705.52 129.15 690.9 128.86C679.09 128.63 667.27 128.78 655.46 128.89C649.07 128.95 643.26 130.96 638.13 134.81C633.5 138.28 630.63 142.8 630.07 148.62C629.87 150.73 629.11 151.72 626.76 151.68C617.88 151.56 608.99 151.55 600.11 151.68C597.5 151.72 596.93 150.68 597.06 148.35C597.97 131.99 605.56 119.54 619.15 110.63C629.28 103.99 640.48 100.73 652.58 100.55C664.92 100.37 677.26 99.9197 689.59 100.16C703.17 100.42 716.25 103.04 727.6 111.2C740.42 120.41 747.74 132.91 749.58 148.56C750.02 152.34 750.16 156.17 750.17 159.97C750.21 198.24 750.2 236.5 750.19 274.77C750.19 277.616 748.763 279.04 745.91 279.04C738.36 279.04 730.81 279.04 723.26 279.04C719.05 279.04 719.11 279.04 719.16 274.68C719.22 268.68 719.18 262.68 719.18 256.95L719.15 256.97ZM664.58 198.59C658.37 198.59 652.13 198.17 645.96 198.69C635.74 199.55 626.93 206.96 625.54 216.1C624.67 221.83 624.47 227.82 625.03 233.58C626.06 244.13 632.07 250.8 642.09 253.17C645.94 254.08 649.99 254.35 653.96 254.48C659.82 254.68 665.69 254.38 671.55 254.5C678.58 254.65 685.41 253.69 691.78 250.73C705.18 244.5 714.31 234.56 717.36 219.78C718.83 212.62 717.79 210.12 711.29 206.82C706.42 204.34 701.25 202.3 696 200.77C685.75 197.77 675.15 197.75 664.56 198.58L664.58 198.59Z" fill="white"/>
<path d="M79.3496 170.16C79.3496 135.35 79.3496 100.55 79.3496 65.7398C79.3496 63.0198 77.9763 61.6598 75.2296 61.6598C51.8596 61.6598 28.4896 61.6598 5.11959 61.6598C1.09959 61.6598 0.939594 61.4498 0.949594 57.4298C0.979594 50.2398 0.949594 43.0498 0.949594 35.8498C0.949594 32.7398 1.3596 32.2798 4.4396 32.2798C65.6596 32.2798 126.89 32.2798 188.11 32.2798C191.39 32.2798 191.65 32.6098 191.64 36.0098C191.62 43.1998 191.61 50.3898 191.66 57.5898C191.68 61.1298 191.25 61.6598 187.79 61.6598C164.33 61.6398 140.87 61.6198 117.42 61.5998C113.34 61.5998 113.25 61.6898 113.25 65.7898C113.25 131.32 113.25 196.85 113.25 262.38C113.25 266.82 113.28 271.26 113.35 275.69C113.39 278.13 112.45 279.15 109.86 279.11C100.98 278.99 92.0896 279.07 83.2096 279.06C79.5696 279.06 79.2896 278.79 79.2896 275.11C79.2896 240.13 79.2896 205.14 79.2896 170.16C79.3096 170.16 79.3296 170.16 79.3596 170.16H79.3496Z" fill="white"/>
<path d="M528.21 205.35C528.21 228.62 528.21 251.88 528.21 275.15C528.21 278.86 528.01 279.06 524.27 279.06C516.01 279.06 507.74 279.06 499.48 279.06C496.6 279.06 495.157 277.646 495.15 274.82C495.17 228.82 495.19 182.82 495.22 136.82C495.22 131.62 494.69 131.46 489.52 131.67C481.98 131.99 474.42 131.8 466.87 131.81C465.31 131.81 464.74 130.94 464.74 129.41C464.78 121.42 464.78 113.43 464.74 105.44C464.73 103.74 465.52 102.91 467.09 102.9C474.28 102.9 481.48 102.95 488.67 102.99C489.29 102.99 489.9 103.13 490.52 103.14C494.76 103.24 495.24 102.79 495.2 98.4698C495.11 88.7998 494.84 79.1398 497.39 69.6498C502.83 49.4698 516.18 37.7198 536.16 32.8798C545.49 30.6198 554.99 30.6698 564.5 30.7398C567.08 30.7598 569.66 30.8098 572.23 30.7198C573.88 30.6598 574.49 31.4398 574.49 32.9298C574.49 40.9198 574.49 48.9098 574.49 56.9098C574.49 58.9698 573.21 59.3698 571.49 59.3698C565.8 59.3398 560.11 59.2398 554.43 59.3898C545.9 59.6198 538.3 62.0998 533.12 69.4198C529.56 74.4598 528.53 80.3198 528.3 86.3298C528.13 90.7598 528.21 95.2098 528.21 99.6498C528.21 102.85 528.6 103.19 531.91 103.16C542.02 103.05 552.13 102.95 562.24 102.86C564.11 102.84 565.97 102.83 567.84 102.88C569.63 102.92 570.53 103.71 570.51 105.69C570.43 113.5 570.43 121.32 570.51 129.13C570.53 131.11 569.74 131.86 567.85 131.84C556.3 131.73 544.76 131.72 533.21 131.51C528.92 131.43 528.21 131.88 528.21 136.09C528.21 159.18 528.21 182.27 528.21 205.36V205.35Z" fill="white"/>
<path d="M389.1 190.84C389.1 162.88 389.1 134.91 389.1 106.95C389.1 103.16 389.4 102.85 393.17 102.85C401.52 102.85 409.87 102.85 418.22 102.85C421.98 102.85 422.22 103.1 422.22 106.68C422.22 162.87 422.22 219.07 422.22 275.26C422.22 277.786 420.927 279.05 418.34 279.05C409.9 279.05 401.46 279.05 393.02 279.05C390.4 279.05 389.09 277.697 389.09 274.99C389.09 246.94 389.09 218.89 389.09 190.83L389.1 190.84Z" fill="white"/>
<path d="M428.62 57.9198C428.9 70.1098 420.48 80.1398 406.03 80.0498C391.31 79.9598 383.07 71.5498 382.69 57.1098C382.37 45.1698 392.53 34.9098 404.68 35.1798C418.9 35.4898 428.47 42.0398 428.62 57.9198Z" fill="white"/>
<path d="M1289.29 180.25C1289.29 188.48 1282.83 194.88 1274.56 194.87C1266.5 194.86 1260.1 188.4 1260.05 180.25C1260 171.93 1266.34 165.57 1274.69 165.56C1282.98 165.55 1289.29 171.9 1289.29 180.25Z" fill="white"/>
<path d="M307.59 298.96C309.04 295 310.46 291.11 312.15 286.48Z" fill="white"/>
</svg>
