<svg width="446" height="266" viewBox="0 0 446 266" fill="none" xmlns="http://www.w3.org/2000/svg">
<path d="M83.8248 4.21907L81.073 5.23165C74.5448 7.64496 74.0452 8.08374 70.0742 15.0621C63.8085 26.0401 62.5807 32.8666 64.9515 43.5914C65.9591 48.1565 66.5857 52.8987 66.3317 54.1307C65.9168 56.1558 66.1454 56.3921 68.7109 56.6621C74.6803 57.2865 69.6508 58.6451 61.3869 58.6451C53.2669 58.6451 52.8689 58.7295 51.6073 60.7546C50.3626 62.746 49.6344 62.9232 26.2482 64.9737L24.5547 65.8175L20.9985 65.6065C17.6794 65.4125 17.4085 65.5644 16.8666 67.927C15.9606 71.9014 16.0199 92.2373 17.781 95.351L20.3212 97.0386L23.073 98.76C25.52 100.296 27.7045 100.54 42.7591 101.005C67.0937 101.739 65.0362 97.1146 65.8998 153.009C66.5518 195.68 66.7212 196.398 77.6777 204.11C90.2429 212.945 100.285 212.202 110.92 201.646C119.827 192.803 120.979 192.744 129.073 200.667C134.408 205.891 140.352 208.388 147.489 208.414C148.742 208.422 150.317 208.81 150.978 209.283C154.822 212.017 177.844 212.059 191.298 209.359C211.408 205.317 217.022 202.591 220.154 195.343C221.501 192.229 223.736 188.449 225.125 186.947C232.694 178.703 231.17 168.712 221.467 162.957C205.447 153.456 192.966 153.599 185.989 163.371C180.901 170.484 175.998 171.978 166.828 169.21C161.511 167.607 159.919 165.16 159.191 157.489C158.869 154.173 158.395 151.844 158.133 152.308C157.87 152.773 157.819 149.001 158.014 143.921C158.353 135.441 158.141 133.466 157.235 136.723C157.049 137.407 157.26 134.926 157.701 131.213C159.767 113.949 173.094 109.561 185.16 122.176C193.94 131.348 195.998 131.669 211.67 126.26C229.587 120.083 232.017 115.839 225.692 101.798C219.426 87.9001 205.659 77.614 190.359 75.4117C179.351 73.8169 179.199 73.7409 169.335 61.244L177.463 57.6578C189.486 52.3502 191.358 49.0256 191.358 33.0184C191.358 18.1251 188.699 11.5434 176.117 4.21907C228.85 4.21907 239.138 4.51441 240.018 5.14727C241.17 5.9742 241.314 18.4458 241.314 116.531V226.986H4.23358V4.21907H83.8248Z" fill="#FCFCFC"/>
<path d="M20.3212 97.0386L17.781 95.351L17.1968 87.8326C16.113 73.9772 17.5947 66.2816 24.5547 65.8175L26.2482 64.9737L94.1971 64.9737C172.171 64.9653 171.113 64.8724 171.062 71.8845C171.028 75.8167 170.605 75.6058 183.746 78.1372C202.856 81.8162 213.559 88.128 221.619 100.473C229.57 112.649 228.114 116.269 212.966 121.956C199.664 126.952 195.109 127.332 192.789 123.619C184.423 110.236 183.5 109.696 169.106 109.696C153.078 109.696 150.148 115.594 150.91 146.368C151.443 167.936 152.544 171.252 160.029 173.851C172.713 178.256 185.82 174.475 190.816 164.966C194.694 157.582 196.184 157.388 210.951 162.316C225.252 167.084 226.42 167.987 225.878 173.843C224.735 186.154 208.614 201.528 192.755 205.427C159.318 213.645 127.744 202.389 117.998 178.787C114.73 170.872 114.73 170.872 114.73 144.292C114.73 104.92 117.6 97.7474 138.302 85.4699C153.552 76.4243 153.264 76.804 143.518 78.6772C126.686 81.9259 115.738 90.44 108.515 105.899C104.569 114.337 104.569 114.337 104.087 155.684C103.486 207.46 103.596 205.865 100.336 207.443C92.4613 211.249 76.3653 203.309 70.5314 192.744C67.3139 186.905 67.3139 186.905 66.8905 142.782C66.5264 104.793 66.2893 98.5491 65.1971 97.8656C64.4858 97.4184 54.3676 97.0555 20.3212 97.0386Z" fill="#00559C"/>
<path d="M20.3212 97.0386C54.3676 97.0555 64.4858 97.4184 65.1971 97.8656C66.2893 98.5491 66.5264 104.793 66.8905 142.782C67.3139 186.905 67.3139 186.905 70.5314 192.744C76.3653 203.309 92.4613 211.249 100.336 207.443C103.596 205.865 103.486 207.46 104.087 155.684C104.569 114.337 104.569 114.337 108.515 105.899C115.738 90.44 126.686 81.9259 143.518 78.6772C153.264 76.804 153.552 76.4243 138.302 85.4699C117.6 97.7474 114.73 104.92 114.73 144.292C114.73 170.872 114.73 170.872 117.998 178.787C127.744 202.389 159.318 213.645 192.755 205.427C208.614 201.528 224.735 186.154 225.878 173.843C226.42 167.987 225.252 167.084 210.951 162.316C196.184 157.388 194.694 157.582 190.816 164.966C185.82 174.475 172.713 178.256 160.029 173.851C152.544 171.252 151.443 167.936 150.91 146.368C150.148 115.594 153.078 109.696 169.106 109.696C183.5 109.696 184.423 110.236 192.789 123.619C195.109 127.332 199.664 126.952 212.966 121.956C228.114 116.269 229.57 112.649 221.619 100.473C213.559 88.128 202.856 81.8162 183.746 78.1372C170.605 75.6058 171.028 75.8167 171.062 71.8845C171.113 64.8724 172.171 64.9653 94.1971 64.9737L26.2482 64.9737C49.6344 62.9232 50.3626 62.746 51.6073 60.7546C52.8689 58.7295 53.2669 58.6451 61.3869 58.6451C69.6508 58.6451 74.6803 57.2865 68.7109 56.6621C66.1454 56.3921 65.9168 56.1558 66.3317 54.1307C66.5857 52.8987 65.9591 48.1565 64.9515 43.5914C62.5807 32.8666 63.8085 26.0401 70.0742 15.0621C74.0452 8.08374 74.5448 7.64496 81.073 5.23165L83.8248 4.21907H97.3723L99.1334 5.69575C114.442 18.5386 113.223 45.6166 96.8134 57.1009C94.7136 58.5691 93.1471 59.9192 93.325 60.0964C94.9422 61.7081 107.558 62.5773 124.941 62.2819C153.154 61.8094 155.389 60.4593 151.139 46.4857C146.609 31.6008 150.961 13.0369 164.263 4.21907H165.109L167.294 4.83506C168.488 5.17258 169.733 5.86451 170.046 6.37924C170.418 7.00366 170.969 6.7927 172.73 4.21907H176.117C188.699 11.5434 191.358 18.1251 191.358 33.0184C191.358 49.0256 189.486 52.3502 177.463 57.6578L169.335 61.244C179.199 73.7409 179.351 73.8169 190.359 75.4117C205.659 77.614 219.426 87.9001 225.692 101.798C232.017 115.839 229.587 120.083 211.67 126.26C195.998 131.669 193.94 131.348 185.16 122.176C173.094 109.561 159.767 113.949 157.701 131.213C157.26 134.926 157.049 137.407 157.235 136.723C158.141 133.466 158.353 135.441 158.014 143.921C157.819 149.001 157.87 152.773 158.133 152.308C158.395 151.844 158.869 154.173 159.191 157.489C159.919 165.16 161.511 167.607 166.828 169.21C175.998 171.978 180.901 170.484 185.989 163.371C192.966 153.599 205.447 153.456 221.467 162.957C231.17 168.712 232.694 178.703 225.125 186.947C223.736 188.449 221.501 192.229 220.154 195.343C217.022 202.591 211.408 205.317 191.298 209.359C177.844 212.059 154.822 212.017 150.978 209.283C150.317 208.81 148.742 208.422 147.489 208.414C140.352 208.388 134.408 205.891 129.073 200.667C120.979 192.744 119.827 192.803 110.92 201.646C100.285 212.202 90.2429 212.945 77.6777 204.11C66.7212 196.398 66.5518 195.68 65.8998 153.009C65.0362 97.1146 67.0937 101.739 42.7591 101.005C27.7045 100.54 25.52 100.296 23.073 98.76L20.3212 97.0386ZM73.7574 51.4727C74.4686 51.4727 75.3069 52.4262 75.6286 53.5822C76.1959 55.6664 76.3144 55.6917 84.282 55.5061C90.8017 55.3542 92.6306 55.0251 93.7314 53.8185C94.4849 52.9915 95.7042 52.3165 96.4409 52.3165C97.948 52.3165 102.673 44.5787 104.535 39.077C107.863 29.2213 106.644 17.7792 102.08 16.0493C100.988 15.6359 99.5145 14.1423 98.8032 12.7247C96.8558 8.83473 85.0525 7.8981 79.7352 11.2059C74.7819 14.2858 70.2774 19.9646 70.2689 23.1458C70.2604 24.5719 69.6931 27.6012 68.9988 29.8795C66.2047 39.0517 68.9396 51.4727 73.7574 51.4727ZM156.837 49.5825C157.895 49.8441 159.995 51.3292 161.511 52.8818C163.789 55.2108 164.889 55.6917 167.921 55.6917C169.927 55.6917 173.585 55.0926 176.049 54.367C185.083 51.6921 188.775 45.2959 188.801 32.2506C188.826 19.7368 185.253 12.6572 178.919 12.6572C176.515 12.6572 176.117 12.3703 176.117 10.5983C176.117 7.82216 175.295 7.49307 171.841 8.8938C170.232 9.55198 167.777 10.1005 166.38 10.1089C163.797 10.1258 159.182 13.3154 159.182 15.079C159.182 15.6021 158.488 16.0325 157.633 16.0325C149.877 16.0325 149.123 47.6164 156.837 49.5825Z" fill="white"/>
<path d="M73.7574 51.4727C68.9396 51.4727 66.2047 39.0517 68.9988 29.8795C69.6931 27.6012 70.2604 24.5719 70.2689 23.1458C70.2774 19.9646 74.7819 14.2858 79.7352 11.2059C85.0525 7.8981 96.8558 8.83473 98.8032 12.7247C99.5145 14.1423 100.988 15.6359 102.08 16.0493C106.644 17.7792 107.863 29.2213 104.535 39.077C102.673 44.5787 97.948 52.3165 96.4409 52.3165C95.7042 52.3165 94.4849 52.9915 93.7314 53.8185C92.6306 55.0251 90.8017 55.3542 84.282 55.5061C76.3144 55.6917 76.1959 55.6664 75.6286 53.5822C75.3069 52.4262 74.4686 51.4727 73.7574 51.4727Z" fill="#29C6DA"/>
<path d="M157.48 48.0118C149.767 46.0457 150.739 14.6333 158.195 13.5083C158.548 12.6297 159.215 11.6901 159.649 11.6901C160.517 9.09231 164.008 7.8103 166.59 7.79343C167.988 7.78499 170.831 7.74684 172.439 7.08866C176.344 7.52163 175.926 6.61571 177.87 7.79343C180.057 8.4523 179.83 7.63227 181.341 9.09233C187.674 9.09233 189.469 18.1661 189.444 30.6799C189.418 43.7252 185.726 50.1214 176.692 52.7962C174.228 53.5219 170.57 54.121 168.564 54.121C165.532 54.121 164.432 53.6401 162.154 51.3111C160.638 49.7585 158.538 48.2734 157.48 48.0118Z" fill="#7ABE51"/>
<path d="M24.5547 65.8175C17.5947 66.2816 16.113 73.9772 17.1968 87.8326L17.781 95.351C16.0199 92.2373 15.9606 71.9014 16.8666 67.927C17.4085 65.5644 17.6794 65.4125 20.9985 65.6065L24.5547 65.8175Z" fill="#E5F4F4"/>
<path d="M165.109 4.21907H172.73C170.969 6.7927 170.418 7.00366 170.046 6.37924C169.733 5.86451 168.488 5.17258 167.294 4.83506L165.109 4.21907Z" fill="#FCFCFC"/>
<path d="M242.331 64.0363V53.0583H294.157V64.0363H274.838V116.036H261.65V64.0363H242.331Z" fill="#79BD4D"/>
<path d="M309.501 116.927C306.481 116.927 303.79 116.405 301.428 115.359C299.066 114.293 297.197 112.725 295.82 110.654C294.465 108.563 293.787 105.96 293.787 102.844C293.787 100.219 294.27 98.0157 295.235 96.2321C296.2 94.4486 297.515 93.0136 299.179 91.927C300.843 90.8405 302.733 90.0205 304.848 89.467C306.985 88.9135 309.224 88.524 311.565 88.2985C314.318 88.0115 316.536 87.745 318.221 87.499C319.905 87.2325 321.127 86.8429 321.887 86.3304C322.647 85.8179 323.027 85.0594 323.027 84.0549V83.8704C323.027 81.9229 322.411 80.4161 321.179 79.3501C319.967 78.284 318.241 77.751 316.002 77.751C313.64 77.751 311.76 78.2738 310.364 79.3193C308.967 80.3443 308.042 81.6358 307.591 83.1939L295.451 82.2099C296.067 79.3398 297.279 76.8593 299.087 74.7682C300.894 72.6567 303.226 71.0371 306.081 69.9096C308.957 68.7616 312.284 68.1876 316.064 68.1876C318.693 68.1876 321.209 68.4951 323.613 69.1101C326.037 69.7251 328.183 70.6784 330.052 71.9699C331.942 73.2614 333.431 74.922 334.52 76.9515C335.609 78.9605 336.153 81.3693 336.153 84.1779V116.036H323.705V109.486H323.335C322.575 110.962 321.559 112.263 320.285 113.391C319.011 114.498 317.481 115.369 315.694 116.005C313.907 116.62 311.843 116.927 309.501 116.927ZM313.26 107.887C315.191 107.887 316.896 107.507 318.375 106.749C319.854 105.97 321.014 104.924 321.856 103.612C322.699 102.3 323.12 100.814 323.12 99.1534V94.1411C322.709 94.4076 322.144 94.6536 321.425 94.8791C320.727 95.0841 319.936 95.2789 319.053 95.4634C318.169 95.6274 317.286 95.7811 316.403 95.9246C315.519 96.0476 314.718 96.1604 313.999 96.2629C312.459 96.4884 311.113 96.8471 309.963 97.3391C308.813 97.8312 307.919 98.4974 307.282 99.3379C306.646 100.158 306.327 101.183 306.327 102.413C306.327 104.197 306.974 105.56 308.268 106.503C309.583 107.425 311.247 107.887 313.26 107.887Z" fill="#79BD4D"/>
<path d="M346.336 116.036V68.8026H359.462V116.036H346.336ZM352.93 62.714C350.979 62.714 349.305 62.0682 347.908 60.7767C346.531 59.4647 345.843 57.8964 345.843 56.0719C345.843 54.2678 346.531 52.72 347.908 51.4285C349.305 50.1165 350.979 49.4605 352.93 49.4605C354.881 49.4605 356.545 50.1165 357.922 51.4285C359.318 52.72 360.017 54.2678 360.017 56.0719C360.017 57.8964 359.318 59.4647 357.922 60.7767C356.545 62.0682 354.881 62.714 352.93 62.714Z" fill="#79BD4D"/>
<path d="M395.427 68.8026V78.6428H366.218V68.8026H395.427ZM372.904 116.036V65.3893C372.904 61.9657 373.571 59.1264 374.907 56.8714C376.262 54.6163 378.111 52.925 380.453 51.7975C382.794 50.67 385.454 50.1062 388.433 50.1062C390.446 50.1062 392.284 50.26 393.948 50.5675C395.633 50.875 396.886 51.1518 397.707 51.3978L395.366 61.238C394.852 61.074 394.215 60.9202 393.455 60.7767C392.716 60.6332 391.956 60.5614 391.175 60.5614C389.244 60.5614 387.899 61.0125 387.139 61.9145C386.379 62.796 385.999 64.0363 385.999 65.6353V116.036H372.904Z" fill="#79BD4D"/>
<path d="M415.247 116.927C412.227 116.927 409.536 116.405 407.174 115.359C404.812 114.293 402.943 112.725 401.566 110.654C400.211 108.563 399.533 105.96 399.533 102.844C399.533 100.219 400.016 98.0157 400.981 96.2321C401.946 94.4486 403.261 93.0136 404.925 91.927C406.589 90.8405 408.478 90.0205 410.594 89.467C412.731 88.9135 414.969 88.524 417.311 88.2985C420.064 88.0115 422.282 87.745 423.967 87.499C425.651 87.2325 426.873 86.8429 427.633 86.3304C428.393 85.8179 428.773 85.0594 428.773 84.0549V83.8704C428.773 81.9229 428.157 80.4161 426.924 79.3501C425.713 78.284 423.987 77.751 421.748 77.751C419.386 77.751 417.506 78.2738 416.11 79.3193C414.713 80.3443 413.788 81.6358 413.336 83.1939L401.197 82.2099C401.813 79.3398 403.025 76.8593 404.832 74.7682C406.64 72.6567 408.971 71.0371 411.827 69.9096C414.702 68.7616 418.03 68.1876 421.81 68.1876C424.439 68.1876 426.955 68.4951 429.359 69.1101C431.782 69.7251 433.929 70.6784 435.798 71.9699C437.688 73.2614 439.177 74.922 440.266 76.9515C441.355 78.9605 441.899 81.3693 441.899 84.1779V116.036H429.451V109.486H429.081C428.321 110.962 427.304 112.263 426.031 113.391C424.757 114.498 423.227 115.369 421.44 116.005C419.653 116.62 417.589 116.927 415.247 116.927ZM419.006 107.887C420.937 107.887 422.642 107.507 424.121 106.749C425.6 105.97 426.76 104.924 427.602 103.612C428.445 102.3 428.866 100.814 428.866 99.1534V94.1411C428.455 94.4076 427.89 94.6536 427.171 94.8791C426.473 95.0841 425.682 95.2789 424.798 95.4634C423.915 95.6274 423.032 95.7811 422.149 95.9246C421.265 96.0476 420.464 96.1604 419.745 96.2629C418.205 96.4884 416.859 96.8471 415.709 97.3391C414.559 97.8312 413.665 98.4974 413.028 99.3379C412.392 100.158 412.073 101.183 412.073 102.413C412.073 104.197 412.72 105.56 414.014 106.503C415.329 107.425 416.993 107.887 419.006 107.887Z" fill="#79BD4D"/>
<path d="M307.275 161.7H293.779C293.533 159.958 293.029 158.41 292.269 157.057C291.509 155.683 290.534 154.515 289.342 153.551C288.151 152.588 286.775 151.85 285.214 151.337C283.673 150.825 281.999 150.568 280.191 150.568C276.925 150.568 274.08 151.378 271.656 152.998C269.233 154.597 267.353 156.934 266.018 160.009C264.683 163.063 264.015 166.774 264.015 171.141C264.015 175.63 264.683 179.402 266.018 182.457C267.374 185.511 269.263 187.818 271.687 189.376C274.111 190.934 276.915 191.713 280.099 191.713C281.886 191.713 283.539 191.477 285.059 191.005C286.6 190.534 287.966 189.847 289.157 188.945C290.349 188.023 291.335 186.905 292.115 185.593C292.916 184.281 293.471 182.785 293.779 181.104L307.275 181.165C306.926 184.056 306.053 186.844 304.656 189.529C303.279 192.194 301.421 194.583 299.079 196.694C296.758 198.785 293.985 200.446 290.76 201.676C287.555 202.885 283.93 203.49 279.883 203.49C274.255 203.49 269.222 202.219 264.785 199.677C260.369 197.135 256.877 193.455 254.309 188.638C251.762 183.82 250.489 177.988 250.489 171.141C250.489 164.273 251.783 158.43 254.371 153.613C256.959 148.795 260.472 145.126 264.909 142.604C269.345 140.062 274.337 138.791 279.883 138.791C283.539 138.791 286.929 139.303 290.051 140.328C293.194 141.354 295.977 142.85 298.401 144.818C300.825 146.766 302.797 149.154 304.317 151.983C305.857 154.812 306.843 158.051 307.275 161.7Z" fill="#79BD4D"/>
<path d="M330.091 203.521C327.071 203.521 324.38 202.998 322.018 201.953C319.656 200.887 317.787 199.318 316.41 197.248C315.055 195.157 314.377 192.553 314.377 189.437C314.377 186.813 314.86 184.609 315.825 182.826C316.79 181.042 318.105 179.607 319.769 178.521C321.433 177.434 323.323 176.614 325.438 176.061C327.575 175.507 329.814 175.118 332.155 174.892C334.908 174.605 337.126 174.339 338.811 174.093C340.495 173.826 341.717 173.437 342.477 172.924C343.237 172.412 343.617 171.653 343.617 170.649V170.464C343.617 168.517 343.001 167.01 341.768 165.944C340.557 164.878 338.831 164.345 336.592 164.345C334.23 164.345 332.35 164.867 330.954 165.913C329.557 166.938 328.632 168.23 328.181 169.788L316.041 168.804C316.657 165.933 317.869 163.453 319.676 161.362C321.484 159.25 323.816 157.631 326.671 156.503C329.547 155.355 332.874 154.781 336.654 154.781C339.283 154.781 341.799 155.089 344.203 155.704C346.626 156.319 348.773 157.272 350.642 158.564C352.532 159.855 354.021 161.516 355.11 163.545C356.199 165.554 356.743 167.963 356.743 170.772V202.629H344.295V196.079H343.925C343.165 197.555 342.149 198.857 340.875 199.985C339.601 201.092 338.071 201.963 336.284 202.598C334.497 203.213 332.433 203.521 330.091 203.521ZM333.85 194.48C335.781 194.48 337.486 194.101 338.965 193.342C340.444 192.563 341.604 191.518 342.446 190.206C343.289 188.894 343.71 187.408 343.71 185.747V180.735C343.299 181.001 342.734 181.247 342.015 181.473C341.317 181.678 340.526 181.873 339.642 182.057C338.759 182.221 337.876 182.375 336.993 182.518C336.109 182.641 335.308 182.754 334.589 182.857C333.049 183.082 331.703 183.441 330.553 183.933C329.403 184.425 328.509 185.091 327.872 185.932C327.236 186.752 326.917 187.777 326.917 189.007C326.917 190.79 327.564 192.153 328.858 193.096C330.173 194.019 331.837 194.48 333.85 194.48Z" fill="#79BD4D"/>
<path d="M366.926 202.629V155.396H379.652V163.637H380.145C381.007 160.706 382.455 158.492 384.489 156.995C386.523 155.478 388.864 154.72 391.514 154.72C392.171 154.72 392.88 154.761 393.64 154.843C394.4 154.925 395.068 155.038 395.643 155.181V166.805C395.027 166.62 394.174 166.456 393.085 166.313C391.997 166.169 391.001 166.097 390.097 166.097C388.166 166.097 386.44 166.518 384.92 167.358C383.421 168.178 382.229 169.326 381.346 170.802C380.483 172.278 380.052 173.98 380.052 175.907V202.629H366.926Z" fill="#79BD4D"/>
<path d="M421.794 203.552C416.926 203.552 412.736 202.568 409.223 200.6C405.731 198.611 403.04 195.803 401.15 192.174C399.261 188.525 398.316 184.21 398.316 179.228C398.316 174.369 399.261 170.105 401.15 166.436C403.04 162.766 405.7 159.906 409.131 157.856C412.582 155.806 416.628 154.781 421.271 154.781C424.393 154.781 427.299 155.284 429.99 156.288C432.702 157.272 435.064 158.758 437.077 160.747C439.11 162.735 440.692 165.236 441.822 168.25C442.952 171.243 443.517 174.749 443.517 178.767V182.365H403.554V174.246H431.161C431.161 172.36 430.75 170.69 429.929 169.234C429.107 167.779 427.967 166.641 426.508 165.821C425.071 164.98 423.397 164.56 421.486 164.56C419.494 164.56 417.727 165.021 416.187 165.944C414.667 166.846 413.475 168.066 412.612 169.603C411.75 171.12 411.308 172.811 411.288 174.677V182.395C411.288 184.732 411.719 186.752 412.582 188.453C413.465 190.155 414.708 191.467 416.31 192.389C417.912 193.312 419.812 193.773 422.01 193.773C423.468 193.773 424.804 193.568 426.016 193.158C427.227 192.748 428.265 192.133 429.128 191.313C429.99 190.493 430.648 189.488 431.099 188.299L443.239 189.099C442.623 192.01 441.36 194.552 439.449 196.725C437.56 198.878 435.115 200.559 432.116 201.768C429.138 202.957 425.697 203.552 421.794 203.552Z" fill="#79BD4D"/>
<path d="M165.185 258.915V233.724H175.143C177.058 233.724 178.689 234.089 180.036 234.819C181.384 235.541 182.411 236.545 183.117 237.832C183.832 239.112 184.19 240.588 184.19 242.261C184.19 243.933 183.828 245.409 183.105 246.689C182.382 247.968 181.334 248.964 179.962 249.678C178.598 250.391 176.947 250.748 175.008 250.748H168.66V246.48H174.145C175.172 246.48 176.018 246.303 176.684 245.951C177.358 245.59 177.859 245.094 178.187 244.462C178.524 243.823 178.693 243.089 178.693 242.261C178.693 241.424 178.524 240.694 178.187 240.071C177.859 239.44 177.358 238.952 176.684 238.607C176.01 238.255 175.156 238.078 174.12 238.078H170.521V258.915H165.185Z" fill="#00559C"/>
<path d="M195.806 259.284C193.891 259.284 192.236 258.878 190.839 258.066C189.45 257.246 188.378 256.107 187.622 254.647C186.866 253.179 186.488 251.478 186.488 249.542C186.488 247.591 186.866 245.885 187.622 244.425C188.378 242.958 189.45 241.818 190.839 241.006C192.236 240.186 193.891 239.776 195.806 239.776C197.72 239.776 199.372 240.186 200.76 241.006C202.157 241.818 203.233 242.958 203.989 244.425C204.745 245.885 205.123 247.591 205.123 249.542C205.123 251.478 204.745 253.179 203.989 254.647C203.233 256.107 202.157 257.246 200.76 258.066C199.372 258.878 197.72 259.284 195.806 259.284ZM195.83 255.225C196.701 255.225 197.428 254.979 198.012 254.487C198.595 253.987 199.035 253.306 199.33 252.445C199.634 251.584 199.786 250.604 199.786 249.505C199.786 248.407 199.634 247.427 199.33 246.566C199.035 245.705 198.595 245.024 198.012 244.524C197.428 244.024 196.701 243.773 195.83 243.773C194.951 243.773 194.212 244.024 193.612 244.524C193.02 245.024 192.572 245.705 192.268 246.566C191.973 247.427 191.825 248.407 191.825 249.505C191.825 250.604 191.973 251.584 192.268 252.445C192.572 253.306 193.02 253.987 193.612 254.487C194.212 254.979 194.951 255.225 195.83 255.225Z" fill="#00559C"/>
<path d="M211.797 258.915L206.645 240.022H211.957L214.89 252.716H215.063L218.119 240.022H223.333L226.439 252.642H226.599L229.483 240.022H234.782L229.643 258.915H224.085L220.831 247.033H220.597L217.343 258.915H211.797Z" fill="#00559C"/>
<path d="M245.736 259.284C243.789 259.284 242.113 258.89 240.708 258.103C239.311 257.308 238.234 256.184 237.478 254.733C236.723 253.273 236.345 251.547 236.345 249.555C236.345 247.611 236.723 245.906 237.478 244.438C238.234 242.97 239.298 241.826 240.671 241.006C242.051 240.186 243.67 239.776 245.526 239.776C246.775 239.776 247.938 239.977 249.014 240.379C250.099 240.772 251.044 241.367 251.849 242.162C252.662 242.958 253.295 243.958 253.747 245.163C254.199 246.361 254.425 247.763 254.425 249.37V250.809H238.44V247.562H249.483C249.483 246.808 249.318 246.139 248.99 245.557C248.661 244.975 248.205 244.52 247.622 244.192C247.047 243.855 246.377 243.687 245.613 243.687C244.816 243.687 244.109 243.872 243.493 244.241C242.885 244.602 242.408 245.09 242.063 245.705C241.718 246.311 241.541 246.988 241.533 247.734V250.822C241.533 251.756 241.706 252.564 242.051 253.245C242.404 253.925 242.901 254.45 243.542 254.819C244.183 255.188 244.943 255.373 245.822 255.373C246.406 255.373 246.94 255.291 247.424 255.127C247.909 254.963 248.324 254.717 248.669 254.389C249.014 254.061 249.277 253.659 249.458 253.183L254.314 253.503C254.067 254.667 253.562 255.684 252.798 256.553C252.042 257.414 251.064 258.087 249.865 258.571C248.673 259.046 247.297 259.284 245.736 259.284Z" fill="#00559C"/>
<path d="M257.851 258.915V240.022H262.941V243.318H263.138C263.484 242.146 264.063 241.26 264.876 240.661C265.69 240.055 266.626 239.751 267.686 239.751C267.949 239.751 268.233 239.768 268.537 239.8C268.841 239.833 269.108 239.878 269.338 239.936V244.585C269.091 244.511 268.75 244.446 268.315 244.388C267.879 244.331 267.481 244.302 267.119 244.302C266.347 244.302 265.657 244.47 265.049 244.807C264.449 245.135 263.972 245.594 263.619 246.184C263.274 246.775 263.102 247.455 263.102 248.226V258.915H257.851Z" fill="#00559C"/>
<path d="M279.798 259.284C277.851 259.284 276.175 258.89 274.77 258.103C273.373 257.308 272.297 256.184 271.541 254.733C270.785 253.273 270.407 251.547 270.407 249.555C270.407 247.611 270.785 245.906 271.541 244.438C272.297 242.97 273.361 241.826 274.733 241.006C276.113 240.186 277.732 239.776 279.589 239.776C280.838 239.776 282 239.977 283.077 240.379C284.161 240.772 285.106 241.367 285.911 242.162C286.725 242.958 287.358 243.958 287.809 245.163C288.261 246.361 288.487 247.763 288.487 249.37V250.809H272.502V247.562H283.545C283.545 246.808 283.381 246.139 283.052 245.557C282.723 244.975 282.267 244.52 281.684 244.192C281.109 243.855 280.439 243.687 279.675 243.687C278.878 243.687 278.172 243.872 277.555 244.241C276.947 244.602 276.471 245.09 276.126 245.705C275.781 246.311 275.604 246.988 275.596 247.734V250.822C275.596 251.756 275.768 252.564 276.113 253.245C276.467 253.925 276.964 254.45 277.605 254.819C278.245 255.188 279.005 255.373 279.885 255.373C280.468 255.373 281.002 255.291 281.487 255.127C281.972 254.963 282.387 254.717 282.732 254.389C283.077 254.061 283.34 253.659 283.52 253.183L288.376 253.503C288.13 254.667 287.625 255.684 286.86 256.553C286.105 257.414 285.127 258.087 283.927 258.571C282.736 259.046 281.359 259.284 279.798 259.284Z" fill="#00559C"/>
<path d="M298.889 259.223C297.451 259.223 296.149 258.854 294.982 258.116C293.824 257.369 292.904 256.275 292.222 254.831C291.548 253.38 291.211 251.601 291.211 249.493C291.211 247.328 291.56 245.528 292.259 244.093C292.957 242.65 293.886 241.572 295.044 240.858C296.211 240.137 297.488 239.776 298.877 239.776C299.937 239.776 300.82 239.956 301.527 240.317C302.242 240.67 302.817 241.113 303.252 241.646C303.696 242.17 304.033 242.687 304.263 243.195H304.423V233.724H309.661V258.915H304.485V255.889H304.263C304.016 256.414 303.667 256.935 303.215 257.451C302.772 257.96 302.192 258.382 301.478 258.718C300.771 259.054 299.908 259.223 298.889 259.223ZM300.553 255.053C301.399 255.053 302.114 254.823 302.698 254.364C303.289 253.897 303.741 253.245 304.053 252.408C304.374 251.572 304.534 250.592 304.534 249.468C304.534 248.345 304.378 247.369 304.066 246.541C303.753 245.713 303.302 245.073 302.71 244.622C302.118 244.171 301.399 243.946 300.553 243.946C299.69 243.946 298.963 244.179 298.372 244.647C297.78 245.114 297.332 245.762 297.028 246.59C296.724 247.418 296.572 248.378 296.572 249.468C296.572 250.567 296.724 251.539 297.028 252.384C297.341 253.22 297.788 253.876 298.372 254.352C298.963 254.819 299.69 255.053 300.553 255.053Z" fill="#00559C"/>
<path d="M322.109 258.915V233.724H327.359V243.195H327.52C327.75 242.687 328.082 242.17 328.518 241.646C328.962 241.113 329.537 240.67 330.243 240.317C330.958 239.956 331.846 239.776 332.905 239.776C334.286 239.776 335.559 240.137 336.726 240.858C337.893 241.572 338.825 242.65 339.524 244.093C340.222 245.528 340.571 247.328 340.571 249.493C340.571 251.601 340.23 253.38 339.548 254.831C338.875 256.275 337.955 257.369 336.788 258.116C335.629 258.854 334.331 259.223 332.893 259.223C331.874 259.223 331.008 259.054 330.293 258.718C329.586 258.382 329.007 257.96 328.555 257.451C328.103 256.935 327.758 256.414 327.52 255.889H327.285V258.915H322.109ZM327.248 249.468C327.248 250.592 327.405 251.572 327.717 252.408C328.029 253.245 328.481 253.897 329.073 254.364C329.664 254.823 330.383 255.053 331.229 255.053C332.084 255.053 332.807 254.819 333.398 254.352C333.99 253.876 334.438 253.22 334.742 252.384C335.054 251.539 335.21 250.567 335.21 249.468C335.21 248.378 335.058 247.418 334.754 246.59C334.45 245.762 334.002 245.114 333.411 244.647C332.819 244.179 332.092 243.946 331.229 243.946C330.375 243.946 329.652 244.171 329.06 244.622C328.477 245.073 328.029 245.713 327.717 246.541C327.405 247.369 327.248 248.345 327.248 249.468Z" fill="#00559C"/>
<path d="M346.706 266C346.041 266 345.416 265.947 344.833 265.84C344.258 265.742 343.781 265.615 343.403 265.459L344.586 261.547C345.202 261.736 345.757 261.838 346.25 261.855C346.751 261.871 347.183 261.756 347.544 261.51C347.914 261.264 348.214 260.846 348.444 260.256L348.752 259.456L341.961 240.022H347.483L351.402 253.897H351.599L355.555 240.022H361.114L353.756 260.957C353.402 261.974 352.922 262.859 352.314 263.614C351.714 264.376 350.954 264.963 350.034 265.373C349.113 265.791 348.004 266 346.706 266Z" fill="#00559C"/>
<path d="M380.879 258.915H371.932V233.724H380.953C383.492 233.724 385.678 234.228 387.51 235.237C389.342 236.238 390.751 237.677 391.737 239.554C392.732 241.432 393.229 243.679 393.229 246.295C393.229 248.919 392.732 251.174 391.737 253.06C390.751 254.946 389.334 256.394 387.485 257.402C385.645 258.411 383.443 258.915 380.879 258.915ZM377.268 254.352H380.658C382.235 254.352 383.562 254.073 384.638 253.515C385.723 252.949 386.536 252.076 387.079 250.895C387.629 249.706 387.904 248.173 387.904 246.295C387.904 244.434 387.629 242.912 387.079 241.732C386.536 240.551 385.727 239.682 384.651 239.124C383.574 238.566 382.247 238.288 380.67 238.288H377.268V254.352Z" fill="#00559C"/>
<path d="M397.182 258.915V233.724H402.518V244.118H413.352V233.724H418.676V258.915H413.352V248.509H402.518V258.915H397.182Z" fill="#00559C"/>
<path d="M427.427 258.915H421.708L430.422 233.724H437.299L446 258.915H440.281L433.959 239.481H433.762L427.427 258.915ZM427.069 249.013H440.577V253.171H427.069V249.013Z" fill="#00559C"/>
<ellipse cx="87.7303" cy="32.8758" rx="20.4871" ry="26.1445" transform="rotate(18.5193 87.7303 32.8758)" fill="#29C6DA"/>
<ellipse cx="169.744" cy="28.9196" rx="21.257" ry="28.174" transform="rotate(2.05927 169.744 28.9196)" fill="#79BD4D"/>
</svg>
